<svg width="59" height="58" viewBox="0 0 59 58" fill="none" xmlns="http://www.w3.org/2000/svg">
<g id="Component">
<g id="WhatsApp">
<path id="Oval" d="M29.5 58C45.7924 58 59 45.0163 59 29C59 12.9837 45.7924 0 29.5 0C13.2076 0 0 12.9837 0 29C0 45.0163 13.2076 58 29.5 58Z" fill="#25D366"/>
<path id="Page-1" fill-rule="evenodd" clip-rule="evenodd" d="M30.4722 45.1338H30.465C27.5292 45.1328 24.6444 44.4087 22.0823 43.0348L12.7832 45.4328L15.2718 36.497C13.7367 33.8818 12.929 30.9153 12.9303 27.876C12.9341 18.3682 20.8033 10.6328 30.4721 10.6328C35.1647 10.6348 39.569 12.4306 42.8808 15.6902C46.1927 18.9496 48.0156 23.282 48.0138 27.8896C48.0099 37.3953 40.1438 45.1299 30.4722 45.1338ZM22.5131 39.913L23.0455 40.2236C25.2841 41.5295 27.8501 42.2205 30.4663 42.2215H30.4722C38.5082 42.2215 45.0487 35.7917 45.0519 27.8886C45.0535 24.0589 43.5384 20.4579 40.7857 17.7487C38.033 15.0395 34.3723 13.5467 30.478 13.5454C22.4358 13.5454 15.8952 19.9746 15.892 27.877C15.8909 30.5853 16.6617 33.2227 18.1212 35.5047L18.4678 36.047L16.9949 41.336L22.5131 39.913ZM38.7093 31.6023C39.015 31.7475 39.2214 31.8456 39.3096 31.9903C39.4191 32.1699 39.4191 33.0326 39.0541 34.0393C38.6887 35.0457 36.9376 35.9643 36.0954 36.088C35.3403 36.199 34.3848 36.2452 33.3348 35.9172C32.6982 35.7187 31.8818 35.4536 30.8361 35.0096C26.7271 33.2654 23.9502 29.3504 23.4254 28.6104C23.3886 28.5586 23.3629 28.5223 23.3486 28.5035L23.345 28.4989C23.1131 28.1946 21.5589 26.1561 21.5589 24.0462C21.5589 22.0615 22.5506 21.0212 23.0071 20.5424C23.0384 20.5096 23.0671 20.4794 23.0929 20.4517C23.4946 20.0204 23.9695 19.9125 24.2617 19.9125C24.5539 19.9125 24.8464 19.9152 25.1018 19.9278C25.1333 19.9293 25.166 19.9291 25.1999 19.9289C25.4554 19.9275 25.7738 19.9256 26.0879 20.6674C26.2088 20.9529 26.3856 21.3761 26.5721 21.8225C26.9493 22.7251 27.366 23.7224 27.4393 23.8667C27.5489 24.0824 27.6219 24.3339 27.4758 24.6216C27.4539 24.6648 27.4336 24.7055 27.4142 24.7444C27.3045 24.9646 27.2238 25.1266 27.0375 25.3404C26.9643 25.4244 26.8886 25.515 26.8129 25.6057C26.6621 25.7862 26.5114 25.9667 26.3801 26.0953C26.1606 26.3101 25.9322 26.5432 26.1879 26.9746C26.4436 27.406 27.3232 28.8169 28.6262 29.9595C30.0269 31.1876 31.2443 31.7067 31.8613 31.9699C31.9818 32.0212 32.0794 32.0629 32.151 32.0981C32.5892 32.3138 32.8449 32.2777 33.1005 31.9903C33.3562 31.7027 34.1962 30.7321 34.4884 30.3008C34.7805 29.8696 35.0728 29.9414 35.4745 30.0851C35.8764 30.229 38.0313 31.2713 38.4696 31.4869C38.5552 31.5291 38.6352 31.5671 38.7093 31.6023Z" fill="#FDFDFD"/>
</g>
</g>
</svg>
