<svg width="59" height="58" viewBox="0 0 59 58" fill="none" xmlns="http://www.w3.org/2000/svg">
<g id="Facebook - Original" clip-path="url(#clip0_121_1566)">
<path id="Vector" d="M58.333 29C58.333 12.9837 45.3493 0 29.333 0C13.3167 0 0.333008 12.9837 0.333008 29C0.333008 43.4745 10.9378 55.4721 24.8018 57.6477V37.3828H17.4385V29H24.8018V22.6109C24.8018 15.3428 29.1314 11.3281 35.7555 11.3281C38.9274 11.3281 42.2471 11.8945 42.2471 11.8945V19.0313H38.5904C34.988 19.0313 33.8643 21.2669 33.8643 23.5625V29H41.9072L40.6215 37.3828H33.8643V57.6477C47.7282 55.4721 58.333 43.4745 58.333 29Z" fill="#1877F2"/>
<path id="Vector_2" d="M40.6205 37.3848L41.9063 29.002H33.8633V23.5645C33.8633 21.2711 34.987 19.0332 38.5894 19.0332H42.2461V11.8965C42.2461 11.8965 38.9275 11.3301 35.7545 11.3301C29.1304 11.3301 24.8008 15.3448 24.8008 22.6129V29.002H17.4375V37.3848H24.8008V57.6497C27.8034 58.1194 30.8607 58.1194 33.8633 57.6497V37.3848H40.6205Z" fill="white"/>
</g>
<defs>
<clipPath id="clip0_121_1566">
<rect width="58" height="58" fill="white" transform="translate(0.333008)"/>
</clipPath>
</defs>
</svg>
