<svg width="56" height="58" viewBox="0 0 56 58" fill="none" xmlns="http://www.w3.org/2000/svg">
<g id="Twitter">
<g id="Twitter_2">
<path id="back" d="M0 29C0 12.9837 12.536 0 28 0C43.464 0 56 12.9837 56 29C56 45.0163 43.464 58 28 58C12.536 58 0 45.0163 0 29Z" fill="#55ACEE"/>
<path id="Shape" d="M27.1614 23.572L27.2202 24.5754L26.2409 24.4525C22.6763 23.9815 19.5623 22.3842 16.9182 19.7014L15.6256 18.3703L15.2926 19.3533C14.5876 21.5445 15.038 23.8587 16.5069 25.4151C17.2904 26.2752 17.1141 26.398 15.7627 25.8861C15.2926 25.7222 14.8813 25.5994 14.8422 25.6608C14.7051 25.8042 15.1751 27.6677 15.5472 28.405C16.0565 29.4289 17.0945 30.4324 18.2305 31.0263L19.1901 31.4973L18.0542 31.5178C16.9574 31.5178 16.9182 31.5382 17.0357 31.9683C17.4274 33.2994 18.9747 34.7125 20.6982 35.3268L21.9125 35.7569L20.8549 36.4122C19.2881 37.3542 17.447 37.8867 15.606 37.9277C14.7247 37.9481 14 38.03 14 38.0915C14 38.2963 16.3894 39.4431 17.78 39.8936C21.9517 41.2248 26.9068 40.6513 30.628 38.3782C33.2721 36.7604 35.9161 33.5452 37.15 30.4324C37.8159 28.7736 38.4818 25.7427 38.4818 24.2887C38.4818 23.3467 38.5405 23.2238 39.6373 22.0975C40.2836 21.4421 40.8908 20.7254 41.0083 20.5206C41.2042 20.1315 41.1846 20.1315 40.1857 20.4796C38.5209 21.094 38.2859 21.0121 39.1085 20.0905C39.7157 19.4352 40.4403 18.2474 40.4403 17.8993C40.4403 17.8379 40.1465 17.9403 39.8136 18.1246C39.461 18.3294 38.6776 18.6365 38.0901 18.8209L37.0325 19.169L36.0728 18.4932C35.544 18.1246 34.7997 17.715 34.408 17.5921C33.4092 17.3054 31.8815 17.3464 30.9806 17.674C28.5324 18.5956 26.9851 20.9711 27.1614 23.572Z" fill="white"/>
</g>
</g>
</svg>
