<svg width="51" height="50" viewBox="0 0 51 50" fill="none" xmlns="http://www.w3.org/2000/svg">
<g id="Group 8955">
<rect id="Rectangle 1423" x="0.626953" y="0.5" width="49" height="49" rx="9.5" fill="white" stroke="#EAEAEA"/>
<g id="Group 8954">
<path id="Vector" d="M12.627 18.75V17.9788C12.201 17.9788 11.8558 18.3241 11.8558 18.75H12.627ZM26.377 18.75H27.1481C27.1481 18.3241 26.8029 17.9788 26.377 17.9788V18.75ZM26.377 21.25V20.4788C26.1724 20.4788 25.9763 20.5601 25.8316 20.7047C25.687 20.8493 25.6058 21.0455 25.6058 21.25H26.377ZM12.627 19.5212H26.377V17.9788H12.627V19.5212ZM25.6058 18.75V33.75H27.1481V18.75H25.6058ZM13.3981 31.25V18.75H11.8558V31.25H13.3981ZM26.377 22.0212H32.5176V20.4788H26.377V22.0212ZM36.8558 26.3594V31.25H38.3981V26.3594H36.8558ZM27.1481 33.75L27.1481 21.25H25.6058L25.6058 33.75L27.1481 33.75ZM33.8494 34.9725C33.1743 35.6476 32.0796 35.6476 31.4045 34.9725L30.3139 36.0631C31.5914 37.3405 33.6626 37.3405 34.94 36.0631L33.8494 34.9725ZM31.4045 32.5275C32.0796 31.8524 33.1743 31.8524 33.8494 32.5275L34.94 31.4369C33.6626 30.1595 31.5914 30.1595 30.3139 31.4369L31.4045 32.5275ZM18.8494 34.9725C18.1743 35.6476 17.0796 35.6476 16.4045 34.9725L15.3139 36.0631C16.5914 37.3405 18.6625 37.3405 19.94 36.0631L18.8494 34.9725ZM16.4045 32.5275C17.0796 31.8524 18.1743 31.8524 18.8494 32.5275L19.94 31.4369C18.6625 30.1595 16.5914 30.1595 15.3139 31.4369L16.4045 32.5275ZM33.8494 32.5275C34.1871 32.8653 34.3558 33.3064 34.3558 33.75H35.8981C35.8981 32.914 35.5786 32.0755 34.94 31.4369L33.8494 32.5275ZM34.3558 33.75C34.3558 34.1936 34.1871 34.6347 33.8494 34.9725L34.94 36.0631C35.5786 35.4245 35.8981 34.586 35.8981 33.75H34.3558ZM30.127 32.9788H26.377V34.5212H30.127V32.9788ZM31.4045 34.9725C31.0668 34.6347 30.8981 34.1936 30.8981 33.75H29.3558C29.3558 34.586 29.6753 35.4245 30.3139 36.0631L31.4045 34.9725ZM30.8981 33.75C30.8981 33.3064 31.0668 32.8653 31.4045 32.5275L30.3139 31.4369C29.6753 32.0755 29.3558 32.914 29.3558 33.75H30.8981ZM16.4045 34.9725C16.0668 34.6347 15.8981 34.1936 15.8981 33.75H14.3558C14.3558 34.586 14.6753 35.4245 15.3139 36.0631L16.4045 34.9725ZM15.8981 33.75C15.8981 33.3064 16.0668 32.8653 16.4045 32.5275L15.3139 31.4369C14.6753 32.0755 14.3558 32.914 14.3558 33.75H15.8981ZM26.377 32.9788H20.127V34.5212H26.377V32.9788ZM18.8494 32.5275C19.1871 32.8653 19.3558 33.3064 19.3558 33.75H20.8981C20.8981 32.914 20.5786 32.0755 19.94 31.4369L18.8494 32.5275ZM19.3558 33.75C19.3558 34.1936 19.1871 34.6347 18.8494 34.9725L19.94 36.0631C20.5786 35.4245 20.8981 34.586 20.8981 33.75H19.3558ZM36.8558 31.25C36.8558 32.2048 36.0818 32.9788 35.127 32.9788V34.5212C36.9336 34.5212 38.3981 33.0566 38.3981 31.25H36.8558ZM32.5176 22.0212C34.9135 22.0212 36.8558 23.9635 36.8558 26.3594H38.3981C38.3981 23.1116 35.7653 20.4788 32.5176 20.4788V22.0212ZM11.8558 31.25C11.8558 33.0566 13.3203 34.5212 15.127 34.5212V32.9788C14.1722 32.9788 13.3981 32.2048 13.3981 31.25H11.8558Z" fill="#7FD3DF"/>
<path id="Rectangle 8" d="M14.502 15C14.502 14.3096 15.0616 13.75 15.752 13.75V13.75C17.823 13.75 19.502 15.4289 19.502 17.5V18.75H18.252C16.1809 18.75 14.502 17.0711 14.502 15V15Z" stroke="#7FD3DF" stroke-width="1.54236" stroke-linejoin="round"/>
<path id="Rectangle 9" d="M24.502 15C24.502 14.3096 23.9423 13.75 23.252 13.75V13.75C21.1809 13.75 19.502 15.4289 19.502 17.5V18.75H20.752C22.823 18.75 24.502 17.0711 24.502 15V15Z" stroke="#7FD3DF" stroke-width="1.54236" stroke-linejoin="round"/>
</g>
</g>
</svg>
