<svg width="31" height="30" viewBox="0 0 31 30" fill="none" xmlns="http://www.w3.org/2000/svg">
<g id="loma/line/wallet _remove">
<g id="wallet _remove">
<path id="Rectangle 1332" d="M18.8997 25.448H9.1019C7.1342 25.448 5.53906 23.8529 5.53906 21.8852V15.014C5.53906 13.0463 7.1342 11.4512 9.1019 11.4512H22.3353C24.303 11.4512 25.8981 13.0463 25.8981 15.014V18.4496" stroke="#7FD3DF" stroke-width="1.90866" stroke-linecap="round"/>
<path id="Rectangle 1335" d="M5.53906 14.6332V10.8159C5.53906 9.059 6.96329 7.63477 8.72017 7.63477H9.99261H11.106M23.3533 11.134V10.8159C23.3533 9.059 21.929 7.63477 20.1722 7.63477H18.8997" stroke="#7FD3DF" stroke-width="1.90866"/>
<path id="Rectangle 1334" d="M5.53906 16.541H8.72017C9.77429 16.541 10.6288 17.3956 10.6288 18.4497V18.4497C10.6288 19.5038 9.77429 20.3583 8.72017 20.3583H5.53906V16.541Z" stroke="#7FD3DF" stroke-width="1.90866"/>
<path id="Vector 479" d="M9.35645 10.8158L11.1201 5.52487C11.2067 5.26508 11.4498 5.08984 11.7237 5.08984H18.6925C19.1152 5.08984 19.4204 5.49442 19.3043 5.90085L18.2635 9.54339L17.6273 11.4521" stroke="#7FD3DF" stroke-width="1.90866" stroke-linecap="round"/>
<path id="Vector" d="M25.0453 22.9325L21.6992 22.9141" stroke="#7FD3DF" stroke-width="1.90866" stroke-miterlimit="10" stroke-linecap="round" stroke-linejoin="round"/>
</g>
</g>
</svg>
