<svg width="65" height="58" viewBox="0 0 65 58" fill="none" xmlns="http://www.w3.org/2000/svg">
<g id="Youtube">
<g id="Youtube_2">
<path id="back" d="M7.83301 29C7.83301 12.9837 20.5557 0 36.25 0C51.9443 0 64.667 12.9837 64.667 29C64.667 45.0163 51.9443 58 36.25 58C20.5557 58 7.83301 45.0163 7.83301 29Z" fill="#FF0000"/>
<path id="Fill-1" d="M50.7727 21.839C50.4242 20.4724 49.397 19.3962 48.0928 19.031C45.7292 18.3672 36.2505 18.3672 36.2505 18.3672C36.2505 18.3672 26.7718 18.3672 24.408 19.031C23.1037 19.3962 22.0766 20.4724 21.728 21.839C21.0947 24.3159 21.0947 29.4839 21.0947 29.4839C21.0947 29.4839 21.0947 34.6517 21.728 37.1287C22.0766 38.4953 23.1037 39.5715 24.408 39.9369C26.7718 40.6005 36.2505 40.6005 36.2505 40.6005C36.2505 40.6005 45.7292 40.6005 48.0928 39.9369C49.397 39.5715 50.4242 38.4953 50.7727 37.1287C51.4062 34.6517 51.4062 29.4839 51.4062 29.4839C51.4062 29.4839 51.4062 24.3159 50.7727 21.839" fill="white"/>
<path id="Fill-2" d="M33.4082 34.7995V25.1328L40.9861 29.9663L33.4082 34.7995Z" fill="#FF0000"/>
</g>
</g>
</svg>
